<?xml version="1.0" encoding="UTF-8" standalone="no"?>
<!-- Generator: Adobe Illustrator 14.0.0, SVG Export Plug-In . SVG Version: 6.00 Build 43363)  -->

<svg
   xmlns:dc="http://purl.org/dc/elements/1.1/"
   xmlns:cc="http://creativecommons.org/ns#"
   xmlns:rdf="http://www.w3.org/1999/02/22-rdf-syntax-ns#"
   xmlns:svg="http://www.w3.org/2000/svg"
   xmlns="http://www.w3.org/2000/svg"
   xmlns:sodipodi="http://sodipodi.sourceforge.net/DTD/sodipodi-0.dtd"
   xmlns:inkscape="http://www.inkscape.org/namespaces/inkscape"
   version="1.1"
   id="Layer_1"
   x="0px"
   y="0px"
   width="300px"
   height="300px"
   viewBox="0 0 300 300"
   enable-background="new 0 0 300 300"
   xml:space="preserve"
   inkscape:version="0.47 r22583"
   sodipodi:docname="Dressage.svg"><metadata
   id="metadata11"><rdf:RDF><cc:Work
       rdf:about=""><dc:format>image/svg+xml</dc:format><dc:type
         rdf:resource="http://purl.org/dc/dcmitype/StillImage" /></cc:Work></rdf:RDF></metadata><defs
   id="defs9"><inkscape:perspective
     sodipodi:type="inkscape:persp3d"
     inkscape:vp_x="0 : 150 : 1"
     inkscape:vp_y="0 : 1000 : 0"
     inkscape:vp_z="300 : 150 : 1"
     inkscape:persp3d-origin="150 : 100 : 1"
     id="perspective13" /><inkscape:perspective
     id="perspective2835"
     inkscape:persp3d-origin="0.5 : 0.33333333 : 1"
     inkscape:vp_z="1 : 0.5 : 1"
     inkscape:vp_y="0 : 1000 : 0"
     inkscape:vp_x="0 : 0.5 : 1"
     sodipodi:type="inkscape:persp3d" /><inkscape:perspective
     id="perspective3608"
     inkscape:persp3d-origin="0.5 : 0.33333333 : 1"
     inkscape:vp_z="1 : 0.5 : 1"
     inkscape:vp_y="0 : 1000 : 0"
     inkscape:vp_x="0 : 0.5 : 1"
     sodipodi:type="inkscape:persp3d" /><inkscape:perspective
     id="perspective3621"
     inkscape:persp3d-origin="0.5 : 0.33333333 : 1"
     inkscape:vp_z="1 : 0.5 : 1"
     inkscape:vp_y="0 : 1000 : 0"
     inkscape:vp_x="0 : 0.5 : 1"
     sodipodi:type="inkscape:persp3d" /><inkscape:perspective
     id="perspective5058"
     inkscape:persp3d-origin="0.5 : 0.33333333 : 1"
     inkscape:vp_z="1 : 0.5 : 1"
     inkscape:vp_y="0 : 1000 : 0"
     inkscape:vp_x="0 : 0.5 : 1"
     sodipodi:type="inkscape:persp3d" /><inkscape:perspective
     id="perspective2826"
     inkscape:persp3d-origin="0.5 : 0.33333333 : 1"
     inkscape:vp_z="1 : 0.5 : 1"
     inkscape:vp_y="0 : 1000 : 0"
     inkscape:vp_x="0 : 0.5 : 1"
     sodipodi:type="inkscape:persp3d" /></defs><sodipodi:namedview
   pagecolor="#ffffff"
   bordercolor="#666666"
   borderopacity="1"
   objecttolerance="10"
   gridtolerance="10"
   guidetolerance="10"
   inkscape:pageopacity="0"
   inkscape:pageshadow="2"
   inkscape:window-width="1440"
   inkscape:window-height="838"
   id="namedview7"
   showgrid="false"
   inkscape:zoom="1.1125147"
   inkscape:cx="167.37207"
   inkscape:cy="272.58952"
   inkscape:window-x="-8"
   inkscape:window-y="-8"
   inkscape:window-maximized="1"
   inkscape:current-layer="Layer_1"
   showguides="true"
   inkscape:guide-bbox="true" />


<g
   id="g3120"
   transform="matrix(-1.3919657,0,0,1.3948292,706.13264,-210.61982)"
   style="fill:#ffffff;fill-opacity:0;opacity:0"><path
     id="path433"
     style="fill:#ffffff;fill-opacity:0;fill-rule:evenodd;stroke:none"
     d="m 292.80379,151.71074 212.64892,0 0,212.21237 -212.64892,0 0,-212.21237 z" /></g><path
   id="path439"
   style="fill:#000000;fill-opacity:1;fill-rule:evenodd;stroke:none"
   d="m 23.364884,249.8768 0.51419,0.51525 c 0.2571,0.24982 0.39733,0.59331 0.39733,0.95242 l 0,7.21341 13.21304,0 c -0.85698,-3.05243 -2.40734,-5.87065 -4.54199,-8.22829 -1.71395,-2.23272 -2.67221,-4.94947 -2.73454,-7.76769 l 1.89314,-8.40785 3.50582,-11.17144 c 3.53698,-10.50005 10.26036,-19.63392 19.22746,-26.12912 2.17361,-1.18663 4.29268,-2.47474 6.34942,-3.84872 6.46628,-3.98923 11.93535,-9.39149 16.0099,-15.80863 l 2.22036,1.36618 c 6.48965,4.59817 9.566976,12.66251 7.79069,20.43022 -0.33499,2.98997 -0.93489,5.94872 -1.80744,8.82941 -0.64663,1.66283 -0.0779,3.54424 1.37117,4.57474 9.582546,6.94019 17.801746,15.59785 24.236876,25.53581 1.55814,2.27176 2.68779,4.80896 3.3422,7.47885 0.39733,2.84946 2.8514,4.95728 5.72618,4.92605 0.84141,2.69332 1.43349,5.47252 1.74513,8.28294 l 14.20244,0 -4.00442,-7.40078 c -1.41791,-2.61525 -3.13186,-5.06656 -5.10291,-7.28367 l -21.66596,-29.72804 c -1.79186,-2.3108 -1.98663,-5.48813 -0.48303,-8.0019 l 4.40176,-12.68594 4.5186,-17.69786 10.56421,1.71748 c 15.99431,2.14686 32.1834,2.34202 48.22446,0.5699 l -2.96047,10.82013 -2.51639,14.32535 -8.20362,27.87784 -2.61768,5.76136 -1.57371,2.31861 -0.45186,1.02267 c -0.83361,2.5528 0.37395,5.32419 2.82023,6.44056 3.2721,3.09926 4.98605,7.51008 4.65884,12.01455 l 14.28816,0 -1.10628,-2.38106 c -2.07233,-4.16098 -4.6978,-8.00969 -7.8063,-11.46027 -1.52697,-2.29518 -1.86976,-5.18366 -0.9115,-7.77551 l 9.69163,-21.2421 5.51582,-10.03947 8.49187,-12.77181 6.86361,-13.08408 5.46908,-2.74016 6.365,3.06024 c 7.08175,2.88849 14.6543,4.36397 22.29699,4.34834 l 10.57198,2.19369 c 1.69838,0.35132 2.87477,1.92046 2.73454,3.65356 l -4.11349,22.57707 c -0.20256,1.07732 -0.86476,2.01413 -1.81524,2.56841 -3.35779,0.42937 -6.18581,2.73236 -7.29988,5.94093 l -6.84025,0 0,13.25583 4.85362,-0.75726 c 7.68943,-1.88924 14.11676,-7.15096 17.49791,-14.33316 l 7.75176,-22.8503 3.5214,-14.11457 c 0.52197,-2.0766 -0.26489,-4.26248 -1.98663,-5.52717 -11.03163,-6.8543 -23.35653,-11.3666 -36.2034,-13.27144 4.07454,-8.73573 6.25593,-18.23652 6.38837,-27.88564 3.31884,-11.32757 8.56978,-21.99157 15.51129,-31.53139 l 6.38838,3.65355 3.64605,13.25583 c -0.0935,3.20077 -0.2493,6.40152 -0.45966,9.59447 0.57653,1.75652 2.27489,2.8885 4.10572,2.74797 2.85918,2.50596 6.81686,3.31005 10.41616,2.13124 3.9421,-0.80409 6.57535,-4.54352 6.00664,-8.53276 l 6.84023,-48.456379 11.86524,-6.8543 -4.45628,-0.671387 C 279.4765,70.610842 273.16602,70.532773 266.9101,71.149511 l -4.55756,-1.37399 c -16.63316,-4.192215 -34.26353,-0.0703 -47.32074,11.06214 l -26.9091,22.741009 c -1.03615,0.62454 -2.15023,1.09294 -3.32663,1.3974 l -15.5035,-8.681075 -2.345,-25.879318 c -0.48302,-5.30858 -2.89814,-10.250237 -6.77791,-13.895985 l -1.77629,-1.327139 c -1.69058,-1.272502 -2.69558,-3.271027 -2.71116,-5.386649 0,-1.163203 0.28047,-2.310785 0.83361,-3.341285 1.26209,0.632346 2.73453,0.694806 4.04337,0.163948 1.30883,-0.530858 2.32942,-1.592574 2.80465,-2.927523 0.74791,-1.889227 1.23093,-3.872144 1.4257,-5.894088 0.44408,-2.342016 0.26489,-4.754289 -0.51418,-6.994831 1.7529,-2.584019 1.7529,-5.987765 0,-8.571783 -1.97885,-2.318597 -4.64326,-3.950212 -7.60372,-4.668424 -3.71618,-1.358368 -7.85304,-0.85874 -11.14851,1.34276 -0.98163,0.710401 -1.8386,1.576952 -2.53197,2.576222 -1.32443,1.889226 -2.00222,4.160985 -1.94768,6.463973 l 0,5.948723 c 0.15582,3.200757 0.7557,6.354675 1.78407,9.383686 0.70895,3.278825 -0.28825,6.682571 -2.64884,9.055817 -4.14465,8.142413 -5.92094,17.284095 -5.1185,26.386752 0.0312,4.06729 -1.0829,8.05653 -3.21755,11.52273 -1.93209,5.113414 -2.92931,10.539099 -2.94489,16.011599 l 0,6.36249 -2.76569,-0.17956 c -6.65327,-0.42937 -13.252,-1.53011 -19.68713,-3.28663 l -42.023046,5.41787 -4.59652,-1.29592 c -18.36269,-3.8331 -36.51504,7.33833 -41.4076,25.47336 -3.64605,12.70156 -3.41232,26.1994 0.69338,38.76042 1.16861,2.64648 0.85698,5.71454 -0.81803,8.06436 -1.675,2.35763 -4.47186,3.64574 -7.346629,3.38813 l 3.879769,2.31078 c 4.83803,1.67065 10.18245,-0.14832 13.00269,-4.42642 5.98326,-8.75134 9.045,-19.16552 8.76454,-29.76706 -0.22593,-10.34392 1.63604,-20.63319 5.47687,-30.23546 2.89814,-6.11267 10.10454,-8.85284 16.31372,-6.18293 l -3.80186,4.20782 c -8.41396,10.58593 -11.60035,24.41946 -8.67105,37.62845 -0.30384,13.16995 -5.80407,25.67633 -15.29316,34.78679 l 0.0468,8.2439 c 0.24152,1.69406 0.0779,3.41154 -0.45186,5.02753 l -9.92535,31.84366 c -0.73233,2.13124 -0.10134,4.48887 1.5893,5.97216 l 1.48803,1.49888" /><path
   style="fill:#000000;fill-opacity:1;stroke:#000000;stroke-width:1.22500000000000010;stroke-linecap:round;stroke-linejoin:round;stroke-opacity:1;stroke-miterlimit:4;stroke-dasharray:none"
   d="m 170.72588,26.084903 0.0223,-1.543807 -33.97776,-0.0062 0.013,1.538979 33.94246,0.01099 z"
   id="path3612"
   sodipodi:nodetypes="ccccc" /><path
   style="fill:#000000;fill-opacity:1;stroke:#000000;stroke-width:0.85100001;stroke-linecap:butt;stroke-linejoin:round;stroke-miterlimit:4;stroke-opacity:1;stroke-dasharray:none"
   d="m 137.99498,17.063097 0.0572,8.933289 31.09469,-0.03845 0.0615,-8.894844 -31.21335,10e-7 -4e-5,0 -8e-5,0 z"
   id="path3616"
   sodipodi:nodetypes="ccccccc" /></svg>