<?xml version="1.0" standalone="no"?>
<!DOCTYPE svg PUBLIC "-//W3C//DTD SVG 20010904//EN"
 "http://www.w3.org/TR/2001/REC-SVG-20010904/DTD/svg10.dtd">
<svg version="1.0" xmlns="http://www.w3.org/2000/svg"
 width="16.000000pt" height="16.000000pt" viewBox="0 0 16.000000 16.000000"
 preserveAspectRatio="xMidYMid meet">
<metadata>
Created by potrace 1.11, written by Peter Selinger 2001-2013
</metadata>
<g transform="translate(0.000000,16.000000) scale(0.005926,-0.005926)"
fill="#000000" stroke="none">
<path d="M399 2558 c-1 -2 -2 -540 -3 -1195 l-2 -1193 961 0 960 0 0 985 0
986 -60 56 c-33 30 -131 125 -218 209 l-157 154 -740 0 c-407 0 -741 -1 -741
-2z m1436 -268 c-1 -163 2 -190 15 -191 8 0 98 -1 200 -1 l185 -1 0 -921 -1
-921 -879 0 -880 0 0 1113 0 1112 680 0 680 0 0 -190z"/>
<path d="M948 2129 c-39 -15 -72 -86 -64 -140 8 -55 35 -101 71 -118 35 -17
65 -4 99 42 26 35 31 128 9 170 -11 22 -69 61 -85 56 -2 0 -15 -5 -30 -10z"/>
<path d="M821 1871 c-15 -15 -18 -33 -17 -101 l1 -82 135 0 c74 0 151 1 170 1
l36 1 -1 90 c0 98 -6 110 -55 110 -19 0 -36 -14 -65 -51 l-40 -50 -46 50 c-50
56 -85 65 -118 32z"/>
<path d="M1393 1740 l2 -50 272 0 273 0 0 50 0 50 -274 0 -274 0 1 -50z"/>
<path d="M805 1313 l1 -48 565 -3 566 -2 2 50 1 50 -568 0 -568 0 1 -47z"/>
<path d="M805 993 l1 -48 566 -3 566 -2 0 50 1 50 -568 0 -567 0 1 -47z"/>
<path d="M804 660 l1 -50 566 0 566 0 2 50 1 50 -568 0 -568 0 0 -50z"/>
</g>
</svg>
